<mxfile host="drawio-plugin" modified="2021-09-24T18:02:21.320Z" agent="5.0 (Windows NT 6.2; Win64; x64) AppleWebKit/537.36 (KHTML, like Gecko) Chrome/89.0.4389.114 Safari/537.36" version="14.7.4" etag="uU9qd0t-vuJPJRrEOTiY" type="embed"><diagram id="t9z2vsfylgBmXTo2SbyW" name="Page-1"><mxGraphModel dx="625" dy="439" grid="1" gridSize="10" guides="1" tooltips="1" connect="1" arrows="1" fold="1" page="1" pageScale="1" pageWidth="850" pageHeight="1100" math="0" shadow="0"><root><mxCell id="0"/><mxCell id="1" parent="0"/><mxCell id="6" value="Boot" style="rounded=0;whiteSpace=wrap;html=1;" vertex="1" parent="1"><mxGeometry x="260" y="40" width="120" height="60" as="geometry"/></mxCell><mxCell id="29" style="edgeStyle=orthogonalEdgeStyle;rounded=0;orthogonalLoop=1;jettySize=auto;html=1;exitX=1;exitY=0.5;exitDx=0;exitDy=0;entryX=0;entryY=0.5;entryDx=0;entryDy=0;" edge="1" parent="1" source="7" target="9"><mxGeometry relative="1" as="geometry"/></mxCell><mxCell id="31" value="NO" style="edgeLabel;html=1;align=center;verticalAlign=middle;resizable=0;points=[];" vertex="1" connectable="0" parent="29"><mxGeometry x="-0.2693" y="2" relative="1" as="geometry"><mxPoint x="21" y="2" as="offset"/></mxGeometry></mxCell><mxCell id="7" value="First&lt;br&gt;Boot" style="rhombus;whiteSpace=wrap;html=1;" vertex="1" parent="1"><mxGeometry x="280" y="140" width="80" height="80" as="geometry"/></mxCell><mxCell id="8" value="Activate&lt;br&gt;Configuration&lt;br&gt;Webserver" style="rounded=0;whiteSpace=wrap;html=1;" vertex="1" parent="1"><mxGeometry x="80" y="240" width="120" height="60" as="geometry"/></mxCell><mxCell id="9" value="Activate&lt;br&gt;Default&lt;br&gt;Webserver" style="rounded=0;whiteSpace=wrap;html=1;" vertex="1" parent="1"><mxGeometry x="440" y="150" width="120" height="60" as="geometry"/></mxCell><mxCell id="10" value="" style="endArrow=classic;html=1;entryX=0.5;entryY=0;entryDx=0;entryDy=0;exitX=0.5;exitY=1;exitDx=0;exitDy=0;" edge="1" parent="1" source="6" target="7"><mxGeometry width="50" height="50" relative="1" as="geometry"><mxPoint x="290" y="220" as="sourcePoint"/><mxPoint x="340" y="170" as="targetPoint"/></mxGeometry></mxCell><mxCell id="21" style="edgeStyle=orthogonalEdgeStyle;rounded=0;orthogonalLoop=1;jettySize=auto;html=1;exitX=0.5;exitY=1;exitDx=0;exitDy=0;entryX=0.5;entryY=0;entryDx=0;entryDy=0;" edge="1" parent="1" source="16" target="8"><mxGeometry relative="1" as="geometry"/></mxCell><mxCell id="16" value="Activate Interal&lt;br&gt;WiFi" style="rounded=0;whiteSpace=wrap;html=1;" vertex="1" parent="1"><mxGeometry x="80" y="150" width="120" height="60" as="geometry"/></mxCell><mxCell id="26" value="" style="endArrow=classic;html=1;exitX=0;exitY=0.5;exitDx=0;exitDy=0;entryX=1;entryY=0.5;entryDx=0;entryDy=0;" edge="1" parent="1" source="7" target="16"><mxGeometry relative="1" as="geometry"><mxPoint x="320" y="240" as="sourcePoint"/><mxPoint x="420" y="240" as="targetPoint"/></mxGeometry></mxCell><mxCell id="27" value="YES" style="edgeLabel;resizable=0;html=1;align=center;verticalAlign=middle;" connectable="0" vertex="1" parent="26"><mxGeometry relative="1" as="geometry"><mxPoint x="10" as="offset"/></mxGeometry></mxCell></root></mxGraphModel></diagram></mxfile>